<svg width="24.000000" height="24.000000" viewBox="0 0 24 24" fill="none" xmlns="http://www.w3.org/2000/svg" xmlns:xlink="http://www.w3.org/1999/xlink">
	<desc>
			Created with Pixso.
	</desc>
	<defs/>
	<rect id="feather-icon / x" rx="0.000000" width="23.000000" height="23.000000" transform="translate(0.500000 0.500000)" fill="#FFFFFF" fill-opacity="0"/>
	<path id="Shape (Stroke)" d="M18.35 5.64C18.54 5.84 18.54 6.15 18.35 6.35L6.35 18.35C6.15 18.54 5.84 18.54 5.64 18.35C5.45 18.15 5.45 17.84 5.64 17.64L17.64 5.64C17.84 5.45 18.15 5.45 18.35 5.64Z" fill="#414141" fill-opacity="1.000000" fill-rule="evenodd"/>
	<path id="Shape (Stroke)" d="M5.64 5.64C5.84 5.45 6.15 5.45 6.35 5.64L18.35 17.64C18.54 17.84 18.54 18.15 18.35 18.35C18.15 18.54 17.84 18.54 17.64 18.35L5.64 6.35C5.45 6.15 5.45 5.84 5.64 5.64Z" fill="#414141" fill-opacity="1.000000" fill-rule="evenodd"/>
</svg>
