<svg viewBox="0 0 16 16" xmlns="http://www.w3.org/2000/svg" xmlns:xlink="http://www.w3.org/1999/xlink" width="16.000000" height="16.000000" fill="none" customFrame="#000000">
	<rect id="feather-icon / user" width="16.000000" height="16.000000" x="0.000000" y="0.000000" fill="rgb(255,255,255)" fill-opacity="0" />
	<path id="Shape (Stroke)" d="M2.33325 12.6665C2.33325 11.0096 3.6764 9.6665 5.33325 9.6665L10.6666 9.6665C12.3234 9.6665 13.6666 11.0096 13.6666 12.6665L13.6666 13.9998C13.6666 14.1839 13.5173 14.3332 13.3333 14.3332C13.1492 14.3332 12.9999 14.1839 12.9999 13.9998L12.9999 12.6665C12.9999 11.3778 11.9553 10.3332 10.6666 10.3332L5.33325 10.3332C4.04459 10.3332 2.99992 11.3778 2.99992 12.6665L2.99992 13.9998C2.99992 14.1839 2.85068 14.3332 2.66659 14.3332C2.48249 14.3332 2.33325 14.1839 2.33325 13.9998L2.33325 12.6665Z" fill="rgb(64.8125,64.8125,64.8125)" fill-rule="evenodd" />
	<path id="Oval (Stroke)" d="M5 4.6665C5 3.00965 6.34315 1.6665 8 1.6665C9.65685 1.6665 11 3.00965 11 4.6665C11 6.32336 9.65685 7.6665 8 7.6665C6.34315 7.6665 5 6.32336 5 4.6665ZM8 2.33317C6.71134 2.33317 5.66667 3.37784 5.66667 4.6665C5.66667 5.95517 6.71134 6.99984 8 6.99984C9.28866 6.99984 10.3333 5.95517 10.3333 4.6665C10.3333 3.37784 9.28866 2.33317 8 2.33317Z" fill="rgb(64.8125,64.8125,64.8125)" fill-rule="evenodd" />
</svg>
