<svg viewBox="0 0 24 24" xmlns="http://www.w3.org/2000/svg" xmlns:xlink="http://www.w3.org/1999/xlink" width="24.000000" height="24.000000" fill="none" customFrame="#000000">
	<rect id="feather-icon / info" width="24.000000" height="24.000000" x="0.000000" y="0.000000" fill="rgb(255,255,255)" fill-opacity="0" />
	<path id="Oval (Stroke)" d="M1.5 12C1.5 6.20101 6.20101 1.5 12 1.5C17.799 1.5 22.5 6.20101 22.5 12C22.5 17.799 17.799 22.5 12 22.5C6.20101 22.5 1.5 17.799 1.5 12ZM12 2.5C6.75329 2.5 2.5 6.75329 2.5 12C2.5 17.2467 6.75329 21.5 12 21.5C17.2467 21.5 21.5 17.2467 21.5 12C21.5 6.75329 17.2467 2.5 12 2.5Z" fill="rgb(64.8125,64.8125,64.8125)" fill-rule="evenodd" />
	<path id="Shape (Stroke)" d="M12 11.5C12.2761 11.5 12.5 11.7239 12.5 12L12.5 16C12.5 16.2761 12.2761 16.5 12 16.5C11.7239 16.5 11.5 16.2761 11.5 16L11.5 12C11.5 11.7239 11.7239 11.5 12 11.5Z" fill="rgb(64.8125,64.8125,64.8125)" fill-rule="evenodd" />
	<path id="Ellipse" d="M13 8C13 8.55228 12.5523 9 12 9C11.4477 9 11 8.55228 11 8C11 7.44772 11.4477 7 12 7C12.5523 7 13 7.44772 13 8Z" fill="rgb(64.8125,64.8125,64.8125)" fill-rule="nonzero" />
</svg>
