<svg width="21.903320" height="19.231812" viewBox="0 0 21.9033 19.2318" fill="none" xmlns="http://www.w3.org/2000/svg" xmlns:xlink="http://www.w3.org/1999/xlink">
	<desc>
			Created with Pixso.
	</desc>
	<defs/>
	<path id="Shape (Stroke)" d="M11.65 1.75C12.78 0.63 14.3 0 15.9 0C17.49 0 19.01 0.63 20.14 1.75C21.27 2.88 21.9 4.41 21.9 6C21.9 7.59 21.27 9.12 20.14 10.24L11.3 19.08C11.1 19.28 10.79 19.28 10.59 19.08L1.75 10.24C-0.59 7.9 -0.59 4.1 1.75 1.75C4.1 -0.59 7.9 -0.59 10.24 1.75L10.95 2.46L11.65 1.75ZM15.9 1C14.57 1 13.3 1.52 12.36 2.46L11.3 3.52C11.21 3.61 11.08 3.67 10.95 3.67C10.81 3.67 10.69 3.61 10.59 3.52L9.53 2.46C7.58 0.51 4.41 0.51 2.46 2.46C0.51 4.41 0.51 7.58 2.46 9.53L10.95 18.02L19.43 9.53C20.37 8.6 20.9 7.32 20.9 6C20.9 4.67 20.37 3.4 19.43 2.46C18.5 1.52 17.22 1 15.9 1Z" fill="#414141" fill-opacity="1.000000" fill-rule="evenodd"/>
</svg>
