<svg width="24.000000" height="28.000000" viewBox="0 0 24 28" fill="none" xmlns="http://www.w3.org/2000/svg" xmlns:xlink="http://www.w3.org/1999/xlink">
	<desc>
			Created with Pixso.
	</desc>
	<defs/>
	<rect id="Frame 211" rx="0.000000" width="23.000000" height="23.000000" transform="translate(0.500000 4.500000)" fill="#FFFFFF" fill-opacity="0"/>
	<rect id="feather-icon / shopping-cart" rx="0.000000" width="23.000000" height="23.000000" transform="translate(0.500000 4.500000)" fill="#FFFFFF" fill-opacity="0"/>
	<path id="Oval (Stroke)" d="M5.5 25C5.5 23.61 6.61 22.5 8 22.5C9.38 22.5 10.5 23.61 10.5 25C10.5 26.38 9.38 27.5 8 27.5C6.61 27.5 5.5 26.38 5.5 25ZM8 23.5C7.17 23.5 6.5 24.17 6.5 25C6.5 25.82 7.17 26.5 8 26.5C8.82 26.5 9.5 25.82 9.5 25C9.5 24.17 8.82 23.5 8 23.5Z" fill="#414141" fill-opacity="1.000000" fill-rule="evenodd"/>
	<path id="Oval (Stroke)" d="M17.5 25C17.5 23.61 18.61 22.5 20 22.5C21.38 22.5 22.5 23.61 22.5 25C22.5 26.38 21.38 27.5 20 27.5C18.61 27.5 17.5 26.38 17.5 25ZM20 23.5C19.17 23.5 18.5 24.17 18.5 25C18.5 25.82 19.17 26.5 20 26.5C20.82 26.5 21.5 25.82 21.5 25C21.5 24.17 20.82 23.5 20 23.5Z" fill="#414141" fill-opacity="1.000000" fill-rule="evenodd"/>
	<path id="Union" d="M1 4.5C0.72 4.5 0.5 4.72 0.5 5C0.5 5.27 0.72 5.5 1 5.5L4.58 5.5C5.33 9.79 6.1 14.06 6.74 18.37C6.93 19.59 7.98 20.5 9.22 20.5L19.35 20.5C20.55 20.5 21.57 19.65 21.81 18.49L23.25 11.29C23.43 10.36 22.72 9.5 21.77 9.5L7.16 9.5C6.85 9.5 6.57 9.58 6.34 9.74L5.49 4.91C5.45 4.67 5.24 4.5 5 4.5L1 4.5ZM6.66 11.07C6.62 10.77 6.85 10.5 7.16 10.5L21.77 10.5C22.09 10.5 22.33 10.78 22.26 11.09L20.83 18.29C20.69 18.99 20.07 19.5 19.35 19.5L9.22 19.5C8.47 19.5 7.84 18.95 7.73 18.22L6.66 11.07Z" fill="#414141" fill-opacity="1.000000" fill-rule="evenodd"/>
	<rect id="num" rx="3.500000" width="10.280001" height="10.000000" transform="translate(12.360352 0.500000)" fill="#FF6633" fill-opacity="1.000000"/>
	<path id="1" d="M18.37 9C18.31 9 18.25 8.98 18.2 8.93C18.16 8.89 18.15 8.83 18.15 8.76L18.15 3.17L16.49 4.45C16.44 4.48 16.39 4.51 16.34 4.51C16.28 4.51 16.22 4.47 16.16 4.41L15.91 4.07C15.87 4.03 15.86 3.98 15.86 3.94C15.86 3.85 15.89 3.79 15.96 3.75L18.14 2.07C18.21 2.02 18.3 2 18.4 2L18.91 2C18.97 2 19.03 2.02 19.07 2.07C19.11 2.1 19.14 2.16 19.14 2.23L19.14 8.76C19.14 8.83 19.11 8.89 19.07 8.93C19.03 8.98 18.97 9 18.91 9L18.37 9Z" fill="#FFFFFF" fill-opacity="1.000000" fill-rule="nonzero"/>
</svg>
