<svg width="24.000000" height="24.000000" viewBox="0 0 24 24" fill="none" xmlns="http://www.w3.org/2000/svg" xmlns:xlink="http://www.w3.org/1999/xlink">
	<desc>
			Created with Pixso.
	</desc>
	<defs/>
	<rect id="Frame 211" rx="0.000000" width="23.000000" height="23.000000" transform="translate(0.500000 0.500000)" fill="#FFFFFF" fill-opacity="0"/>
	<path id="Shape (Stroke)" d="M11.33 1.89L3.33 5.89L3.33 5.89C2.82 6.15 2.5 6.67 2.5 7.23L2.5 16.76C2.49 17.33 2.81 17.85 3.32 18.11L11.32 22.11C11.74 22.32 12.24 22.32 12.66 22.11L20.66 18.11L20.66 18.11C21.17 17.85 21.5 17.33 21.5 16.76L21.5 7.24C21.5 6.67 21.17 6.15 20.66 5.89L20.66 5.89L12.66 1.89C12.24 1.68 11.75 1.68 11.33 1.89ZM10.88 1C11.58 0.65 12.41 0.65 13.11 1L13.11 1L21.11 5C21.96 5.42 22.5 6.29 22.5 7.23L22.5 16.77C22.5 17.71 21.96 18.58 21.11 19L13.11 23C12.41 23.35 11.58 23.35 10.87 23L2.87 19L2.87 19C2.02 18.57 1.49 17.7 1.5 16.75L1.5 7.23C1.5 6.29 2.03 5.42 2.88 5L10.88 1L10.88 1Z" fill="#414141" fill-opacity="1.000000" fill-rule="evenodd"/>
	<path id="Shape (Stroke)" d="M1.87 5.93C1.99 5.68 2.29 5.58 2.54 5.71L12 10.44L21.45 5.71C21.7 5.58 22 5.68 22.12 5.93C22.25 6.18 22.15 6.48 21.9 6.6L12.22 11.44C12.08 11.51 11.91 11.51 11.77 11.44L2.09 6.6C1.84 6.48 1.75 6.18 1.87 5.93Z" fill="#414141" fill-opacity="1.000000" fill-rule="evenodd"/>
	<path id="Shape (Stroke)" d="M12 10.5C12.27 10.5 12.5 10.72 12.5 11L12.5 22.76C12.5 23.03 12.27 23.26 12 23.26C11.72 23.26 11.5 23.03 11.5 22.76L11.5 11C11.5 10.72 11.72 10.5 12 10.5Z" fill="#414141" fill-opacity="1.000000" fill-rule="evenodd"/>
	<path id="Shape (Stroke)" d="M6.55 3.27C6.67 3.02 6.97 2.92 7.22 3.05L17.22 8.05C17.47 8.17 17.57 8.47 17.44 8.72C17.32 8.97 17.02 9.07 16.77 8.94L6.77 3.94C6.52 3.82 6.42 3.52 6.55 3.27Z" fill="#414141" fill-opacity="1.000000" fill-rule="evenodd"/>
</svg>
