<svg width="39.963867" height="31.999969" viewBox="0 0 39.9639 32" fill="none" xmlns="http://www.w3.org/2000/svg" xmlns:xlink="http://www.w3.org/1999/xlink">
	<desc>
			Created with Pixso.
	</desc>
	<defs/>
	<rect id="atom" rx="0.000000" width="32.659805" height="14.180889" transform="translate(3.647461 17.319000)" fill="#FFFFFF" fill-opacity="0"/>
	<path id="Vector" d="M35.66 16.81L4.28 16.81C3.62 16.81 3.09 17.37 3.15 18.03C3.84 25.84 11.11 31.99 19.97 31.99C28.84 31.99 36.11 25.85 36.8 18.03C36.86 17.37 36.32 16.81 35.66 16.81Z" fill="#FF6633" fill-opacity="1.000000" fill-rule="nonzero"/>
	<path id="Vector (Stroke)" d="M0.22 3.33C1.78 1.27 4.6 0 7.71 0C10.81 0 13.63 1.27 15.19 3.33C15.56 3.81 15.47 4.5 14.98 4.87C14.5 5.24 13.8 5.14 13.43 4.66C12.36 3.25 10.25 2.2 7.71 2.2C5.16 2.2 3.05 3.25 1.98 4.66C1.61 5.14 0.92 5.24 0.43 4.87C-0.05 4.5 -0.15 3.81 0.22 3.33Z" fill="#414141" fill-opacity="1.000000" fill-rule="evenodd"/>
	<path id="Vector (Stroke)" d="M24.76 3.33C26.33 1.27 29.14 0 32.25 0C35.35 0 38.17 1.27 39.73 3.33C40.1 3.81 40.01 4.5 39.52 4.87C39.04 5.24 38.35 5.14 37.98 4.66C36.9 3.25 34.79 2.2 32.25 2.2C29.7 2.2 27.59 3.25 26.52 4.66C26.15 5.14 25.46 5.24 24.97 4.87C24.49 4.5 24.39 3.81 24.76 3.33Z" fill="#414141" fill-opacity="1.000000" fill-rule="evenodd"/>
</svg>
