<svg width="20.000000" height="20.000000" viewBox="0 0 20 20" fill="none" xmlns="http://www.w3.org/2000/svg" xmlns:xlink="http://www.w3.org/1999/xlink">
	<desc>
			Created with Pixso.
	</desc>
	<defs>
		<linearGradient x1="2.929127" y1="17.070873" x2="17.070875" y2="2.929125" id="paint_linear_23_2444_0" gradientUnits="userSpaceOnUse">
			<stop stop-color="#FFC107"/>
			<stop offset="0.507000" stop-color="#F44336"/>
			<stop offset="0.990000" stop-color="#9C27B0"/>
		</linearGradient>
	</defs>
	<path d="M6.25 0L13.75 0C17.2012 0 20 2.79883 20 6.25L20 13.75C20 17.2012 17.2012 20 13.75 20L6.25 20C2.79883 20 0 17.2012 0 13.75L0 6.25C0 2.79883 2.79883 0 6.25 0ZM13.75 18.125C16.1621 18.125 18.125 16.1626 18.125 13.75L18.125 6.25C18.125 3.8374 16.1621 1.875 13.75 1.875L6.25 1.875C3.83789 1.875 1.875 3.8374 1.875 6.25L1.875 13.75C1.875 16.1626 3.83789 18.125 6.25 18.125L13.75 18.125ZM15.4004 5.2002C15.7305 5.2002 16 4.93115 16 4.6001C16 4.26855 15.7305 4 15.4004 4C15.0684 4 14.8008 4.26855 14.8008 4.6001C14.8008 4.93115 15.0684 5.2002 15.4004 5.2002ZM10 5.2002C7.34961 5.2002 5.19922 7.34961 5.19922 10C5.19922 12.6509 7.34961 14.8003 10 14.8003C12.6504 14.8003 14.8008 12.6509 14.8008 10C14.8008 7.34961 12.6504 5.2002 10 5.2002ZM10 13C8.3457 13 7 11.6538 7 10C7 8.34521 8.3457 7 10 7C11.6543 7 13 8.34521 13 10C13 11.6538 11.6543 13 10 13Z" clip-rule="evenodd" fill="url(#paint_linear_23_2444_0)" fill-opacity="1.000000" fill-rule="evenodd"/>
</svg>
