<svg width="24.000000" height="24.000000" viewBox="0 0 24 24" fill="none" xmlns="http://www.w3.org/2000/svg" xmlns:xlink="http://www.w3.org/1999/xlink">
	<desc>
			Created with Pixso.
	</desc>
	<defs/>
	<rect id="social / ok" rx="0.000000" width="23.000000" height="23.000000" transform="translate(0.500000 0.500000)" fill="#FFFFFF" fill-opacity="0"/>
	<path id="Vector" d="M11.79 5.02C12.97 5.02 13.92 5.98 13.92 7.16C13.92 8.33 12.97 9.29 11.79 9.29C10.61 9.29 9.65 8.33 9.65 7.16C9.65 5.98 10.61 5.02 11.79 5.02ZM11.79 12.32C14.63 12.32 16.95 10 16.95 7.16C16.95 4.31 14.63 2 11.79 2C8.94 2 6.63 4.31 6.63 7.16C6.63 10 8.94 12.32 11.79 12.32ZM13.88 16.53C14.94 16.29 15.95 15.87 16.87 15.29C17.21 15.07 17.45 14.73 17.54 14.34C17.63 13.95 17.56 13.54 17.35 13.2C17.24 13.03 17.1 12.89 16.94 12.77C16.78 12.66 16.6 12.58 16.4 12.53C16.21 12.49 16.01 12.48 15.81 12.52C15.62 12.55 15.43 12.62 15.26 12.73C13.15 14.06 10.42 14.05 8.31 12.73C8.14 12.62 7.96 12.55 7.76 12.52C7.57 12.48 7.36 12.49 7.17 12.53C6.98 12.58 6.79 12.66 6.63 12.77C6.47 12.89 6.33 13.03 6.23 13.2C6.01 13.54 5.94 13.95 6.03 14.34C6.12 14.73 6.36 15.07 6.7 15.29C7.62 15.87 8.64 16.29 9.7 16.53L6.81 19.41C6.53 19.7 6.37 20.08 6.37 20.48C6.37 20.88 6.53 21.27 6.81 21.55C7.1 21.84 7.48 22 7.88 22C8.28 21.99 8.67 21.84 8.95 21.55L11.79 18.72L14.62 21.55C14.76 21.69 14.93 21.8 15.11 21.88C15.3 21.96 15.49 22 15.69 22C15.89 22 16.09 21.96 16.27 21.88C16.45 21.8 16.62 21.69 16.76 21.55C16.9 21.41 17.01 21.25 17.09 21.06C17.16 20.88 17.2 20.68 17.2 20.48C17.2 20.28 17.16 20.09 17.09 19.9C17.01 19.72 16.9 19.55 16.76 19.41L13.88 16.53Z" fill="#EE8208" fill-opacity="1.000000" fill-rule="nonzero"/>
</svg>
