<svg width="20.992188" height="20.851501" viewBox="0 0 20.9922 20.8515" fill="none" xmlns="http://www.w3.org/2000/svg" xmlns:xlink="http://www.w3.org/1999/xlink">
	<desc>
			Created with Pixso.
	</desc>
	<defs/>
	<path id="Vector 188 (Stroke)" d="M0.02 3.12C-0.22 1.28 1.37 0 3.06 0L6.66 0C7.38 0 8 0.51 8.13 1.23L8.74 4.56C8.92 5.56 8.66 6.58 8.03 7.37L7.3 8.28C7.17 8.44 7.16 8.65 7.26 8.82C7.73 9.58 8.58 10.87 9.34 11.64C10.11 12.41 11.4 13.25 12.17 13.72C12.33 13.82 12.55 13.81 12.71 13.68L13.61 12.96C14.4 12.33 15.42 12.07 16.42 12.25L19.76 12.85C20.47 12.98 20.99 13.6 20.99 14.33L20.99 17.68C20.99 19.5 19.54 21.12 17.6 20.81C14.29 20.28 9.56 18.57 5.62 14.34C1.8 10.22 0.38 6.01 0.02 3.12ZM3.06 1C1.8 1 0.87 1.91 1.01 3C1.35 5.69 2.68 9.7 6.35 13.65C10.1 17.69 14.62 19.31 17.76 19.82C18.96 20.01 19.99 19.02 19.99 17.68L19.99 14.33C19.99 14.09 19.82 13.88 19.58 13.84L16.25 13.23C15.53 13.1 14.8 13.29 14.23 13.74L13.33 14.46C12.85 14.84 12.18 14.9 11.65 14.57C10.88 14.11 9.5 13.21 8.64 12.35C7.78 11.49 6.88 10.1 6.41 9.34C6.08 8.8 6.14 8.13 6.52 7.65L7.25 6.75C7.7 6.18 7.88 5.45 7.75 4.74L7.15 1.41C7.1 1.17 6.9 1 6.66 1L3.06 1Z" fill="#414141" fill-opacity="1.000000" fill-rule="evenodd"/>
</svg>
