<svg width="24.000000" height="24.000000" viewBox="0 0 24 24" fill="none" xmlns="http://www.w3.org/2000/svg" xmlns:xlink="http://www.w3.org/1999/xlink">
	<desc>
			Created with Pixso.
	</desc>
	<defs/>
	<rect id="social / telegram" rx="0.000000" width="23.000000" height="23.000000" transform="translate(0.500000 0.500000)" fill="#FFFFFF" fill-opacity="0"/>
	<path id="Vector" d="M22 12C22 17.52 17.52 22 12 22C6.47 22 2 17.52 2 12C2 6.47 6.47 2 12 2C17.52 2 22 6.47 22 12Z" fill="#039BE5" fill-opacity="1.000000" fill-rule="evenodd"/>
	<path id="Vector" d="M6.51 11.87L16.28 8.04C16.74 7.88 17.13 8.15 16.98 8.85L16.99 8.85L15.32 16.82C15.2 17.38 14.87 17.52 14.41 17.25L11.87 15.35L10.65 16.55C10.51 16.69 10.4 16.8 10.14 16.8L10.32 14.18L15.01 9.87C15.22 9.69 14.97 9.59 14.7 9.77L8.9 13.48L6.39 12.69C5.85 12.51 5.84 12.14 6.51 11.87Z" fill="#FFFFFF" fill-opacity="1.000000" fill-rule="nonzero"/>
</svg>
