<svg width="24.000000" height="24.000000" viewBox="0 0 24 24" fill="none" xmlns="http://www.w3.org/2000/svg" xmlns:xlink="http://www.w3.org/1999/xlink">
	<desc>
			Created with Pixso.
	</desc>
	<defs/>
	<rect id="social / vkontakte" rx="0.000000" width="23.000000" height="23.000000" transform="translate(0.500000 0.500000)" fill="#FFFFFF" fill-opacity="0"/>
	<path id="Vector" d="M11.78 17.36L12.98 17.36C12.98 17.36 13.34 17.32 13.52 17.12C13.69 16.94 13.68 16.59 13.68 16.59C13.68 16.59 13.66 14.99 14.41 14.75C15.14 14.52 16.08 16.3 17.08 16.99C17.84 17.51 18.41 17.4 18.41 17.4L21.08 17.36C21.08 17.36 22.48 17.27 21.82 16.17C21.76 16.08 21.43 15.36 19.83 13.88C18.16 12.32 18.38 12.57 20.4 9.88C21.63 8.25 22.12 7.25 21.96 6.82C21.82 6.41 20.91 6.52 20.91 6.52L17.91 6.54C17.91 6.54 17.69 6.51 17.52 6.61C17.36 6.7 17.25 6.93 17.25 6.93C17.25 6.93 16.78 8.2 16.14 9.27C14.81 11.55 14.27 11.67 14.05 11.53C13.54 11.2 13.67 10.2 13.67 9.5C13.67 7.29 14 6.38 13.02 6.14C12.69 6.06 12.45 6.01 11.61 6C10.54 5.99 9.63 6 9.12 6.25C8.78 6.42 8.51 6.79 8.67 6.82C8.87 6.84 9.32 6.94 9.56 7.26C9.87 7.68 9.86 8.62 9.86 8.62C9.86 8.62 10.04 11.22 9.44 11.54C9.04 11.76 8.48 11.31 7.29 9.25C6.68 8.19 6.21 7.02 6.21 7.02C6.21 7.02 6.13 6.8 5.97 6.69C5.77 6.55 5.5 6.5 5.5 6.5L2.65 6.52C2.65 6.52 2.22 6.53 2.06 6.72C1.92 6.88 2.05 7.22 2.05 7.22C2.05 7.22 4.29 12.46 6.82 15.1C9.14 17.52 11.78 17.36 11.78 17.36Z" fill="#1E88E5" fill-opacity="1.000000" fill-rule="nonzero"/>
</svg>
