<svg width="24.000000" height="24.000000" viewBox="0 0 24 24" fill="none" xmlns="http://www.w3.org/2000/svg" xmlns:xlink="http://www.w3.org/1999/xlink">
	<desc>
			Created with Pixso.
	</desc>
	<defs/>
	<rect id="social / whatsapp" rx="0.000000" width="23.000000" height="23.000000" transform="translate(0.500000 0.500000)" fill="#FFFFFF" fill-opacity="0"/>
	<path id="Vector" d="M2 22L3.72 16.84C2.84 15.37 2.34 13.65 2.34 11.82C2.34 6.39 6.74 2 12.17 2C17.59 2 22 6.39 22 11.82C22 17.25 17.59 21.65 12.17 21.65C10.52 21.65 8.96 21.24 7.59 20.52L2 22Z" fill="#2CB742" fill-opacity="1.000000" fill-rule="nonzero"/>
	<path id="Vector" d="M18.44 15.09C17.99 14.24 16.31 13.26 16.31 13.26C15.93 13.04 15.48 13.02 15.26 13.4C15.26 13.4 14.72 14.05 14.58 14.15C13.95 14.57 13.36 14.56 12.77 13.97L11.4 12.59L10.02 11.22C9.43 10.63 9.42 10.05 9.84 9.41C9.94 9.28 10.59 8.73 10.59 8.73C10.98 8.52 10.95 8.06 10.74 7.68C10.74 7.68 9.75 6.01 8.9 5.55C8.53 5.36 8.08 5.43 7.79 5.72L7.19 6.33C5.26 8.25 6.21 10.42 8.13 12.34L9.89 14.1L11.65 15.86C13.57 17.78 15.74 18.73 17.67 16.8L18.27 16.2C18.56 15.91 18.63 15.46 18.44 15.09Z" fill="#FFFFFF" fill-opacity="1.000000" fill-rule="nonzero"/>
</svg>
