<svg viewBox="0 0 24 24" xmlns="http://www.w3.org/2000/svg" xmlns:xlink="http://www.w3.org/1999/xlink" width="24.000000" height="24.000000" fill="none" customFrame="#000000">
	<rect id="feather-icon / upload" width="24.000000" height="24.000000" x="0.000000" y="0.000000" fill="rgb(255,255,255)" fill-opacity="0" />
	<path id="Shape (Stroke)" d="M3 16.5C3.27614 16.5 3.5 16.7239 3.5 17L3.5 20C3.5 20.8284 4.17157 21.5 5 21.5L19 21.5C19.8284 21.5 20.5 20.8284 20.5 20L20.5 17C20.5 16.7239 20.7239 16.5 21 16.5C21.2761 16.5 21.5 16.7239 21.5 17L21.5 20C21.5 21.3807 20.3807 22.5 19 22.5L5 22.5C3.61929 22.5 2.5 21.3807 2.5 20L2.5 17C2.5 16.7239 2.72386 16.5 3 16.5Z" fill="rgb(255,255,255)" fill-rule="evenodd" />
	<path id="Shape (Stroke)" d="M11.6464 1.64645C11.8417 1.45118 12.1583 1.45118 12.3536 1.64645L16.3536 5.64645C16.5488 5.84171 16.5488 6.15829 16.3536 6.35355C16.1583 6.54882 15.8417 6.54882 15.6464 6.35355L12 2.70711L8.35355 6.35355C8.15829 6.54882 7.84171 6.54882 7.64645 6.35355C7.45118 6.15829 7.45118 5.84171 7.64645 5.64645L11.6464 1.64645Z" fill="rgb(255,255,255)" fill-rule="evenodd" />
	<path id="Shape (Stroke)" d="M12 1.5C12.2761 1.5 12.5 1.72386 12.5 2L12.5 16C12.5 16.2761 12.2761 16.5 12 16.5C11.7239 16.5 11.5 16.2761 11.5 16L11.5 2C11.5 1.72386 11.7239 1.5 12 1.5Z" fill="rgb(255,255,255)" fill-rule="evenodd" />
</svg>
