<svg viewBox="0 0 24 24" xmlns="http://www.w3.org/2000/svg" xmlns:xlink="http://www.w3.org/1999/xlink" width="24.000000" height="24.000000" fill="none" customFrame="#000000">
	<rect id="feather-icon / home" width="24.000000" height="24.000000" x="0.000000" y="0.000000" fill="rgb(255,255,255)" fill-opacity="0" />
	<path id="Shape (Stroke)" d="M11.693 1.60532C11.8736 1.46489 12.1264 1.46489 12.307 1.60532L21.307 8.60532C21.4288 8.70005 21.5 8.84571 21.5 9L21.5 20C21.5 21.3807 20.3807 22.5 19 22.5L5 22.5C3.61929 22.5 2.5 21.3807 2.5 20L2.5 9C2.5 8.84571 2.57124 8.70005 2.69303 8.60532L11.693 1.60532ZM3.5 9.24454L3.5 20C3.5 20.8284 4.17157 21.5 5 21.5L19 21.5C19.8284 21.5 20.5 20.8284 20.5 20L20.5 9.24454L12 2.63343L3.5 9.24454Z" fill="rgb(64.8125,64.8125,64.8125)" fill-rule="evenodd" />
	<path id="Shape (Stroke)" d="M8.5 12C8.5 11.7239 8.72386 11.5 9 11.5L15 11.5C15.2761 11.5 15.5 11.7239 15.5 12L15.5 22C15.5 22.2761 15.2761 22.5 15 22.5C14.7239 22.5 14.5 22.2761 14.5 22L14.5 12.5L9.5 12.5L9.5 22C9.5 22.2761 9.27614 22.5 9 22.5C8.72386 22.5 8.5 22.2761 8.5 22L8.5 12Z" fill="rgb(64.8125,64.8125,64.8125)" fill-rule="evenodd" />
</svg>
