<svg viewBox="0 0 24 24" xmlns="http://www.w3.org/2000/svg" xmlns:xlink="http://www.w3.org/1999/xlink" width="24.000000" height="24.000000" fill="none" customFrame="#000000">
	<rect id="feather-icon / message-square" width="24.000000" height="24.000000" x="0.000000" y="0.000000" fill="rgb(255,255,255)" fill-opacity="0" />
	<path id="Shape (Stroke)" d="M5 3.5C4.17157 3.5 3.5 4.17157 3.5 5L3.5 19.7929L6.64645 16.6464C6.74021 16.5527 6.86739 16.5 7 16.5L19 16.5C19.8284 16.5 20.5 15.8284 20.5 15L20.5 5C20.5 4.17157 19.8284 3.5 19 3.5L5 3.5ZM2.5 5C2.5 3.61929 3.61929 2.5 5 2.5L19 2.5C20.3807 2.5 21.5 3.61929 21.5 5L21.5 15C21.5 16.3807 20.3807 17.5 19 17.5L7.20711 17.5L3.35355 21.3536C3.21055 21.4966 2.9955 21.5393 2.80866 21.4619C2.62182 21.3846 2.5 21.2022 2.5 21L2.5 5Z" fill="rgb(95.625,95.625,95.625)" fill-rule="evenodd" />
	<path id="Vector 181 (Stroke)" d="M5.5 7C5.5 6.72386 5.72386 6.5 6 6.5L18 6.5C18.2761 6.5 18.5 6.72386 18.5 7C18.5 7.27614 18.2761 7.5 18 7.5L6 7.5C5.72386 7.5 5.5 7.27614 5.5 7Z" fill="rgb(95.625,95.625,95.625)" fill-rule="evenodd" />
	<path id="Vector 182 (Stroke)" d="M5.5 10C5.5 9.72386 5.72386 9.5 6 9.5L18 9.5C18.2761 9.5 18.5 9.72386 18.5 10C18.5 10.2761 18.2761 10.5 18 10.5L6 10.5C5.72386 10.5 5.5 10.2761 5.5 10Z" fill="rgb(95.625,95.625,95.625)" fill-rule="evenodd" />
	<path id="Vector 183 (Stroke)" d="M5.5 13C5.5 12.7239 5.72386 12.5 6 12.5L18 12.5C18.2761 12.5 18.5 12.7239 18.5 13C18.5 13.2761 18.2761 13.5 18 13.5L6 13.5C5.72386 13.5 5.5 13.2761 5.5 13Z" fill="rgb(95.625,95.625,95.625)" fill-rule="evenodd" />
</svg>
