<svg viewBox="0 0 24 24" xmlns="http://www.w3.org/2000/svg" xmlns:xlink="http://www.w3.org/1999/xlink" width="24.000000" height="24.000000" fill="none" customFrame="#000000">
	<rect id="feather-icon / bag" width="24.000000" height="24.000000" x="0.000000" y="0.000000" fill="rgb(196,196,196)" fill-opacity="0" />
	<path id="Rectangle 6259 (Stroke)" d="M7.65467 5.43288C7.87793 3.20023 9.75666 1.5 12.0004 1.5C14.2442 1.5 16.123 3.20023 16.3462 5.43288L16.498 6.95025L15.5029 7.04975L15.3512 5.53238C15.179 3.81093 13.7305 2.5 12.0004 2.5C10.2704 2.5 8.82185 3.81093 8.6497 5.53238L8.49797 7.04975L7.50293 6.95025L7.65467 5.43288Z" fill="rgb(64.8125,64.8125,64.8125)" fill-rule="evenodd" />
	<path id="Rectangle 6258 (Stroke)" d="M18.0606 7L5.93949 7L5.06449 21L18.9356 21L18.0606 7ZM5.93949 6C5.41143 6 4.97438 6.41059 4.94144 6.93762L4.06644 20.9376C4.03046 21.5133 4.48767 22 5.06449 22L18.9356 22C19.5124 22 19.9696 21.5133 19.9336 20.9376L19.0586 6.93762C19.0257 6.41059 18.5887 6 18.0606 6L5.93949 6Z" fill="rgb(64.8125,64.8125,64.8125)" fill-rule="evenodd" />
</svg>
