<svg viewBox="0 0 24 24" xmlns="http://www.w3.org/2000/svg" xmlns:xlink="http://www.w3.org/1999/xlink" width="24.000000" height="24.000000" fill="none" customFrame="#000000">
	<rect id="feather-icon / alert-triangle" width="24.000000" height="24.000000" x="0.000000" y="0.000000" fill="rgb(255,255,255)" fill-opacity="0" />
	<path id="Shape (Stroke)" d="M9.8613 4.60065C10.3145 3.8535 11.1249 3.39722 11.9988 3.39722C12.8727 3.39722 13.6831 3.8535 14.1363 4.60065L14.1377 4.60302L22.6119 18.7499C23.056 19.5191 23.0586 20.4664 22.6188 21.2381C22.1789 22.0098 21.3625 22.4902 20.4743 22.4999L20.4688 22.5L3.5233 22.5C2.63507 22.4902 1.81872 22.0098 1.37884 21.2381C0.938955 20.4664 0.941607 19.5192 1.3858 18.7499L1.38981 18.743L9.85987 4.60303L9.8613 4.60065ZM10.717 5.1181C10.7168 5.11849 10.7165 5.11888 10.7163 5.11928L2.24995 19.2532C1.98527 19.7142 1.9843 20.2809 2.24762 20.7429C2.51112 21.2052 2.99978 21.4932 3.53172 21.5L20.4659 21.5C20.9978 21.4932 21.4865 21.2052 21.75 20.7429C22.0133 20.2809 22.0123 19.7142 21.7477 19.2532L13.2813 5.11928C13.2811 5.11888 13.2808 5.11849 13.2806 5.1181C13.0085 4.67051 12.5227 4.39722 11.9988 4.39722C11.4749 4.39722 10.9891 4.67051 10.717 5.1181Z" fill="rgb(64.8125,64.8125,64.8125)" fill-rule="evenodd" />
	<path id="Shape (Stroke)" d="M12 9.5C12.2761 9.5 12.5 9.72386 12.5 10L12.5 14C12.5 14.2761 12.2761 14.5 12 14.5C11.7239 14.5 11.5 14.2761 11.5 14L11.5 10C11.5 9.72386 11.7239 9.5 12 9.5Z" fill="rgb(64.8125,64.8125,64.8125)" fill-rule="evenodd" />
	<path id="Ellipse" d="M13 18C13 18.5523 12.5523 19 12 19C11.4477 19 11 18.5523 11 18C11 17.4477 11.4477 17 12 17C12.5523 17 13 17.4477 13 18Z" fill="rgb(64.8125,64.8125,64.8125)" fill-rule="nonzero" />
</svg>
