<svg viewBox="0 0 24 24" xmlns="http://www.w3.org/2000/svg" xmlns:xlink="http://www.w3.org/1999/xlink" width="24.000000" height="24.000000" fill="none" customFrame="#000000">
	<rect id="feather-icon / message-square-empty" width="24.000000" height="24.000000" x="0.000000" y="0.000000" fill="rgb(255,255,255)" fill-opacity="0" />
	<path id="Shape (Stroke)" d="M5 3.5C4.17157 3.5 3.5 4.17157 3.5 5L3.5 19.7929L6.64645 16.6464C6.74021 16.5527 6.86739 16.5 7 16.5L19 16.5C19.8284 16.5 20.5 15.8284 20.5 15L20.5 5C20.5 4.17157 19.8284 3.5 19 3.5L5 3.5ZM2.5 5C2.5 3.61929 3.61929 2.5 5 2.5L19 2.5C20.3807 2.5 21.5 3.61929 21.5 5L21.5 15C21.5 16.3807 20.3807 17.5 19 17.5L7.20711 17.5L3.35355 21.3536C3.21055 21.4966 2.9955 21.5393 2.80866 21.4619C2.62182 21.3846 2.5 21.2022 2.5 21L2.5 5Z" fill="rgb(95.625,95.625,95.625)" fill-rule="evenodd" />
</svg>
