<svg viewBox="0 0 24 24" xmlns="http://www.w3.org/2000/svg" xmlns:xlink="http://www.w3.org/1999/xlink" width="24.000000" height="24.000000" fill="none" customFrame="#000000">
	<rect id="feather-icon / check-circle" width="24.000000" height="24.000000" x="0.000000" y="0.000000" fill="rgb(255,255,255)" fill-opacity="0" />
	<path id="Shape (Stroke)" d="M14.8666 4.31675C11.0235 2.6044 6.51196 3.62373 3.77842 6.82197C1.04488 10.0202 0.74055 14.6355 3.03047 18.165C5.32038 21.6944 9.65905 23.2974 13.6936 22.1045C17.7282 20.9116 20.4977 17.207 20.5001 12.9997L20.5001 12.07C20.5001 11.7939 20.7239 11.57 21.0001 11.57C21.2762 11.57 21.5001 11.7939 21.5001 12.07L21.5001 13C21.4974 17.6502 18.4365 21.7449 13.9772 23.0634C9.51789 24.3819 4.72252 22.6103 2.19156 18.7092C-0.339398 14.8082 -0.00303388 9.70714 3.01825 6.17225C6.03953 2.63735 11.026 1.51072 15.2736 3.40332C15.5258 3.51571 15.6392 3.8113 15.5268 4.06354C15.4144 4.31577 15.1188 4.42914 14.8666 4.31675Z" fill="rgb(64.8125,64.8125,64.8125)" fill-rule="evenodd" />
	<path id="Shape (Stroke)" d="M22.3536 3.64645C22.5488 3.84171 22.5488 4.15829 22.3536 4.35355L11.3536 15.3536C11.1583 15.5488 10.8417 15.5488 10.6464 15.3536L7.64645 12.3536C7.45118 12.1583 7.45118 11.8417 7.64645 11.6464C7.84171 11.4512 8.15829 11.4512 8.35355 11.6464L11 14.2929L21.6464 3.64645C21.8417 3.45118 22.1583 3.45118 22.3536 3.64645Z" fill="rgb(64.8125,64.8125,64.8125)" fill-rule="evenodd" />
</svg>
