<svg width="21.000000" height="21.000000" viewBox="0 0 21 21" fill="none" xmlns="http://www.w3.org/2000/svg" xmlns:xlink="http://www.w3.org/1999/xlink">
	<desc>
			Created with Pixso.
	</desc>
	<defs/>
	<path id="Vector" d="M0 10.5C0 4.7 4.7 0 10.5 0C16.29 0 21 4.7 21 10.5C21 16.29 16.29 21 10.5 21C4.7 21 0 16.29 0 10.5ZM10.5 1C5.25 1 1 5.25 1 10.5C1 15.74 5.25 20 10.5 20C15.74 20 20 15.74 20 10.5C20 5.25 15.74 1 10.5 1ZM10.5 6C10.77 6 11 6.22 11 6.5L11 10.5C11 10.77 10.77 11 10.5 11C10.22 11 10 10.77 10 10.5L10 6.5C10 6.22 10.22 6 10.5 6ZM10.5 15.5C11.05 15.5 11.5 15.05 11.5 14.5C11.5 13.94 11.05 13.5 10.5 13.5C9.94 13.5 9.5 13.94 9.5 14.5C9.5 15.05 9.94 15.5 10.5 15.5Z" fill="#F2F2F2" fill-opacity="1.000000" fill-rule="evenodd"/>
</svg>
