<svg viewBox="0 0 24 24" xmlns="http://www.w3.org/2000/svg" xmlns:xlink="http://www.w3.org/1999/xlink" width="24.000000" height="24.000000" fill="none" customFrame="#000000">
	<rect id="feather-icon / arrow-left" width="24.000000" height="24.000000" x="0.000000" y="0.000000" fill="rgb(255,255,255)" fill-opacity="0" />
	<path id="Shape (Stroke)" d="M3.5 12C3.5 11.7239 3.72386 11.5 4 11.5L20 11.5C20.2761 11.5 20.5 11.7239 20.5 12C20.5 12.2761 20.2761 12.5 20 12.5L4 12.5C3.72386 12.5 3.5 12.2761 3.5 12Z" fill="rgb(64.8125,64.8125,64.8125)" fill-rule="evenodd" />
	<path id="Shape (Stroke)" d="M10.3536 5.64645C10.5488 5.84171 10.5488 6.15829 10.3536 6.35355L4.70711 12L10.3536 17.6464C10.5488 17.8417 10.5488 18.1583 10.3536 18.3536C10.1583 18.5488 9.84171 18.5488 9.64645 18.3536L3.64645 12.3536C3.45118 12.1583 3.45118 11.8417 3.64645 11.6464L9.64645 5.64645C9.84171 5.45118 10.1583 5.45118 10.3536 5.64645Z" fill="rgb(64.8125,64.8125,64.8125)" fill-rule="evenodd" />
</svg>
