<svg width="24.000000" height="24.000000" viewBox="0 0 24 24" fill="none" xmlns="http://www.w3.org/2000/svg" xmlns:xlink="http://www.w3.org/1999/xlink">
	<desc>
			Created with Pixso.
	</desc>
	<defs/>
	<rect id="feather-icon / calendar" rx="0.000000" width="23.000000" height="23.000000" transform="translate(0.500000 0.500000)" fill="#FFFFFF" fill-opacity="0"/>
	<path id="Rectangle-path (Stroke)" d="M2.5 6C2.5 4.61 3.61 3.5 5 3.5L19 3.5C20.38 3.5 21.5 4.61 21.5 6L21.5 20C21.5 21.38 20.38 22.5 19 22.5L5 22.5C3.61 22.5 2.5 21.38 2.5 20L2.5 6ZM5 4.5C4.17 4.5 3.5 5.17 3.5 6L3.5 20C3.5 20.82 4.17 21.5 5 21.5L19 21.5C19.82 21.5 20.5 20.82 20.5 20L20.5 6C20.5 5.17 19.82 4.5 19 4.5L5 4.5Z" fill="#414141" fill-opacity="1.000000" fill-rule="evenodd"/>
	<path id="Shape (Stroke)" d="M16 1.5C16.27 1.5 16.5 1.72 16.5 2L16.5 6C16.5 6.27 16.27 6.5 16 6.5C15.72 6.5 15.5 6.27 15.5 6L15.5 2C15.5 1.72 15.72 1.5 16 1.5Z" fill="#414141" fill-opacity="1.000000" fill-rule="evenodd"/>
	<path id="Shape (Stroke)" d="M8 1.5C8.27 1.5 8.5 1.72 8.5 2L8.5 6C8.5 6.27 8.27 6.5 8 6.5C7.72 6.5 7.5 6.27 7.5 6L7.5 2C7.5 1.72 7.72 1.5 8 1.5Z" fill="#414141" fill-opacity="1.000000" fill-rule="evenodd"/>
	<path id="Shape (Stroke)" d="M2.5 10C2.5 9.72 2.72 9.5 3 9.5L21 9.5C21.27 9.5 21.5 9.72 21.5 10C21.5 10.27 21.27 10.5 21 10.5L3 10.5C2.72 10.5 2.5 10.27 2.5 10Z" fill="#414141" fill-opacity="1.000000" fill-rule="evenodd"/>
</svg>
